<?xml version="1.0" standalone="no"?><!DOCTYPE svg PUBLIC "-//W3C//DTD SVG 1.1//EN" "http://www.w3.org/Graphics/SVG/1.1/DTD/svg11.dtd"><svg t="1734017174699" class="icon" viewBox="0 0 1024 1024" version="1.1" xmlns="http://www.w3.org/2000/svg" p-id="16105" xmlns:xlink="http://www.w3.org/1999/xlink" width="256" height="256"><path d="M725.632 827.904c-63.104 42.88-136.832 65.408-213.504 65.408-210.304 0-381.312-171.008-381.312-381.184 0-75.52 22.016-148.608 63.744-211.072 8.576-12.672 4.992-29.952-7.68-38.528-12.672-8.576-29.952-4.992-38.528 7.68-47.872 71.68-73.088 155.392-73.088 241.92 0 240.768 195.968 436.608 436.864 436.608 87.68 0 172.416-25.856 244.736-74.88 12.672-8.576 16-25.856 7.424-38.656-8.704-12.544-25.984-15.872-38.656-7.296zM512 75.136c-93.312 0-182.272 28.928-257.408 83.84-12.416 9.088-15.104 26.496-6.016 38.784 9.088 12.416 26.496 15.104 38.784 6.016 65.536-47.744 143.232-73.088 224.64-73.088 210.176 0 381.184 171.136 381.184 381.312 0 81.408-25.216 159.104-73.088 224.512-9.088 12.416-6.272 29.824 6.016 38.784 4.864 3.712 10.624 5.376 16.384 5.376 8.576 0 17.024-3.968 22.4-11.52 54.912-75.136 83.84-164.096 83.84-257.28C948.864 271.104 753.024 75.136 512 75.136z m-84.864 611.968c4.864 0 9.6-1.152 13.952-3.84l251.904-145.408c8.576-4.864 13.824-14.08 13.824-24.064 0-9.984-5.248-19.072-13.824-24.064L441.216 344.32c-8.704-4.864-19.2-4.864-27.904 0-8.576 4.864-13.824 14.08-13.824 24.064V659.2c0 9.984 5.248 19.072 13.824 24.064 4.224 2.56 9.088 3.84 13.824 3.84z m27.904-270.592l168.576 97.28-168.576 97.28v-194.56z" fill="#ffffff" p-id="16106"></path></svg>